# xmcd
# Copyright (C) 1995-1998 Ti Kan
#
# Track frame offsets:
#       150
#       15030
#       29115
#       40477
#       61173
#       76655
#       92651
#       109219
#       126033
#       145400
#
# Disc length: 2178 seconds
#
# Revision: 0
# Processed by: cddbd v1.5.2PL0 Copyright (c) Steve Scherf et al.
# Submitted via: CD-Import v1.0
#
DISCID=7a08800a
DTITLE=Carl Barât - Carl Barât
DYEAR=10
DGENRE=
TTITLE0=The Magus
TTITLE1=Je Regrette, Je Regrette
TTITLE2=She's Something
TTITLE3=Carve My Name
TTITLE4=R
TTITLE5=The Fall
TTITLE6=So Long, My Lover
TTITLE7=What Have I Done
TTITLE8=Shadows Fall
TTITLE9=Ode To A Girl
EXTD=
EXTT0=
EXTT1=
EXTT2=
EXTT3=
EXTT4=
EXTT5=
EXTT6=
EXTT7=
EXTT8=
EXTT9=
PLAYORDER=
